<svg xmlns="http://www.w3.org/2000/svg" width="256" height="256"><path fill="#1976D2" fill-opacity=".016" fill-rule="evenodd" d="M0 128.004v128.004l128.25-.254 128.25-.254.254-127.75L257.008 0H0zm.485.496c0 70.4.119 99.053.265 63.672s.146-92.98 0-128S.485 58.1.485 128.5"/><path fill="#1976D2" fill-opacity=".155" fill-rule="evenodd" d="M71.641 4.908c-2.78 3.198-3.722 6.144-3.072 9.606 1.071 5.711-1.825 4.297-5.145-2.512-1.608-3.298-3.231-5.998-3.606-6-1.554-.005-4.864 6.114-5.887 10.882C53.065 20.922 52.422 22 50.877 22c-2.878 0-9.651 3.709-10.844 5.938C39.465 29 39 30.782 39 31.899s-.915 2.52-2.034 3.119c-1.779.952-2.166.707-3.097-1.965C33.283 31.374 32.147 30 31.343 30s-1.176-.461-.828-1.024C32.277 26.124 26.766 16 23.452 16c-.753 0-2.142 2.174-3.086 4.832l-1.716 4.832-4.309-2.409c-2.37-1.324-5.084-2.259-6.031-2.076-2.287.44-3.116 4.294-2.113 9.821.922 5.084 3.144 8.555 7.395 11.548 3.695 2.602 4.284 4.71 1.091 3.909-3.1-.778-4.519 1.101-6.225 8.239-1.963 8.214-1.797 10.526 1.058 14.733l2.516 3.708-3.431 9.181C2.443 98.796-.003 111.705.004 127.692c.02 48.819 29.249 93.123 74.232 112.516 10.744 4.632 32.361 10.331 45.192 11.914 15.962 1.969 33.398.065 51.339-5.606 4.546-1.438 8.739-2.321 9.317-1.964 2.649 1.637 26.916-5.589 26.916-8.015 0-.324-1.436.154-3.192 1.062-1.755.908-4.496 2.025-6.09 2.482-2.482.712-2.806.59-2.253-.851.505-1.315.142-1.223-1.659.424-1.359 1.242-4.359 2.377-7.306 2.764l-5 .656 7.484-3.694c6.893-3.403 15.186-8.625 19.134-12.048 1.437-1.246 1.689-1.046 2.257 1.795.458 2.286.146 3.794-1.091 5.286-.952 1.148-1.09 1.525-.307.837 2.427-2.131 4.29-1.415 8.638 3.32 3.595 3.916 4.669 4.525 7.498 4.25 2.534-.245 4.069-1.328 6.595-4.648 1.811-2.38 3.292-5.432 3.292-6.783 0-1.473 1.4-3.856 3.5-5.956 3.666-3.666 4.387-6.969 2.567-11.757-.765-2.012-.495-2.865 1.5-4.739 3.36-3.157 3.139-7.064-.644-11.372-2.181-2.484-2.889-4.096-2.433-5.535.657-2.068-.862-2.855-1.99-1.03-.34.55-1.686 1-2.991 1-2.997 0-6.509 4.739-6.509 8.782 0 1.635-.67 3.529-1.489 4.209s-1.28 1.574-1.024 1.989c.256.414-.536 1.6-1.761 2.636L221.5 211.5l2-2.383 2-2.383-2.134.664c-2.955.918-4.064-3.403-1.771-6.902 2.276-3.474 2.662-3.144 2.049 1.754l-.532 4.25 1.05-4.5c1.566-6.714 5.833-15.626 6.763-14.122.483.782 2.422 1.134 5.165.937 4.866-.349 5.961-2.024 3.489-5.334-1.445-1.935-1.556-1.939-4.779-.158-2.443 1.349-2.91 1.422-1.798.283.826-.846 3.299-2.413 5.496-3.481l3.995-1.943-2.997-1.294c-1.648-.711-3.114-1.358-3.259-1.437s.854-3.111 2.219-6.737c7.004-18.61 8.859-45.173 4.589-65.714-6.869-33.038-26.039-60.366-56.652-80.761-1.041-.693.132-.291 2.607.893 13.37 6.401 30.587 21.087 40.919 34.904 6.294 8.417 12.841 20.44 16.703 30.674 9.901 26.236 9.492 59.398-1.054 85.507-1.42 3.516-2.14 6.611-1.651 7.1 1.681 1.681 8.082-17.189 10.792-31.817 1.548-8.358 2.818-37.318 1.5-34.218-.506 1.191-1.185-.963-2.047-6.5-6.685-42.927-40.407-81.688-83.162-95.591-3.575-1.162-11.675-3.358-18-4.879-10.58-2.544-13.06-2.762-31-2.725-17.75.038-20.33.27-28.75 2.593-8.646 2.386-9.25 2.435-9.25.745 0-2.228-1.306-3.102-6.738-4.511-3.561-.923-4.458-.844-5.621.494M103 8.475c-4.125.698-10.269 2.049-13.653 3.002-5.046 1.421-6.236 2.164-6.612 4.128-.252 1.317-.408 2.395-.346 2.395.061 0 4.452-1.552 9.757-3.449 9.119-3.259 21.45-6.042 30.354-6.851 2.2-.2.4-.393-4-.429s-11.375.506-15.5 1.204m18 1.624c-11.481 1.119-25.54 4.831-36.903 9.743C72.541 24.837 71.152 26 76.741 26c2.278 0 4.405.427 4.728.95.937 1.516-2.959 3.05-7.749 3.05h-4.411l-.178 5.75c-.238 7.715-.683 8.81-4.551 11.2-4.345 2.686-8.062 2.628-10.012-.156-1.512-2.159-1.576-2.165-2.951-.285-1.295 1.771-1.119 2.022 2.239 3.191 2.004.699 3.756 1.277 3.894 1.285s.25.832.25 1.831c0 2.811-10.785 7.635-15.212 6.804-4.315-.809-4.956-.168-3.198 3.201 2.193 4.203 1.764 13.002-.856 17.584-3.287 5.745-8.728 9.727-14.123 10.335-4.122.465-4.644.831-5.683 3.977-.629 1.906-.968 6.575-.753 10.374.373 6.593-.259 8.739-1.568 5.327-.334-.87-.646-2.557-.693-3.75-.069-1.747-.28-1.585-1.082.832-.549 1.65-1.237 9.975-1.531 18.5-.415 12.064-.163 17.467 1.138 24.374 7.272 38.602 30.245 69.843 64.039 87.087 17.058 8.704 29.497 11.196 51.022 10.222 17.437-.79 30.527-4.039 45.289-11.242l11.289-5.508-.65-3.466c-1.199-6.388.218-10.246 4.578-12.47 5.104-2.604 5.682-2.542 8.95.956l2.759 2.954 2.83-2.954c2.661-2.777 2.704-2.953.719-2.953-3.442 0-8.264-4.731-8.264-8.108 0-2.6-.273-2.862-2.418-2.323-4.206 1.056-5.949-5.447-1.878-7.009 1.814-.696 4.296 1.079 4.296 3.071 0 1.136.361 1.16 2 .137 1.109-.693 2-2.332 2-3.68 0-2.926 7.73-10.731 11.588-11.699 4.386-1.101 6.912 2.421 6.912 9.635 0 3.284.082 5.972.182 5.973.1.002 1.154-1.362 2.342-3.03 1.979-2.78 2.06-3.449.968-8-1.057-4.405-1.491-4.967-3.842-4.971-4.383-.006-9.153-3.521-9.134-6.731.023-3.798 4.1-10.706 6.511-11.032 3.014-.409 8.331 3.355 9.107 6.444.419 1.671.051 4.53-.942 7.328-1.323 3.726-1.416 5.283-.495 8.284l1.134 3.696 1.834-3.017c1.009-1.659 1.835-4.061 1.835-5.337 0-1.277.891-3.127 1.98-4.113 2.489-2.252 7.236-14.539 9.665-25.018 1.48-6.384 1.84-11.837 1.78-27-.069-17.224-.321-19.915-2.704-28.794-5.801-21.616-16.053-39.291-32.094-55.333-19.572-19.572-40.554-30.156-64.127-32.348-6.05-.563-11.675-.963-12.5-.889s-5.325.507-10 .963M67 20.5c-1.351 1.628-1.028 1.832 1.418.893.87-.334 1.582-1.009 1.582-1.5 0-1.383-1.62-1.055-3 .607m1.024 2.758c-2.528 1.618-3.023 2.311-1.817 2.543 2.222.428 8.013-2.635 7.267-3.844-.845-1.366-1.543-1.199-5.45 1.301M46.31 32.5c.005 3.3.192 4.529.415 2.732s.218-4.497-.01-6c-.229-1.503-.411-.032-.405 3.268m66.94 9.208c-.687.252-1.25 1.126-1.25 1.943 0 .934-.648 1.301-1.75.991-5.092-1.434-8.117-1.666-8.733-.67-.396.642-2.003.84-3.909.482-2.297-.431-3.616-.149-4.545.97-.768.926-2.866 1.576-5.087 1.576-3.11 0-4.548.76-8.127 4.295-2.392 2.362-5.586 4.827-7.099 5.478-1.825.786-2.761 1.948-2.782 3.456-.017 1.249-.692 3.145-1.5 4.212-.807 1.068-1.468 3.22-1.468 4.782 0 1.563-.675 4.457-1.5 6.431-2.366 5.662-1.97 10.834.996 13.013 1.941 1.425 2.924 3.724 4.419 10.333 1.057 4.675 2.614 10.975 3.461 14 1.468 5.247 1.449 5.576-.418 7.16-2.088 1.771-2.563 5.842-1.018 8.728.517.967 2.655 3.563 4.75 5.771s4.619 5.213 5.607 6.678 2.788 2.715 4 2.779c1.771.093 1.85.208.4.584-1.431.371-1.561.759-.628 1.884.647.779 1.796 1.416 2.553 1.416.825 0 1.378 1.067 1.378 2.655 0 2.444-.139 2.534-1.75 1.126-5.344-4.667-14.999-4.391-21.521.615-5.51 4.23-7.99 7.829-8.241 11.96-.116 1.912-1.21 4.746-2.431 6.299-1.827 2.322-2.115 3.622-1.624 7.334.834 6.317.835 8.1.008 11.392-.945 3.76.706 3.197 3.749-1.279 1.27-1.868 3.435-4.091 4.81-4.938 1.86-1.147 1.539-.522-1.25 2.439-2.063 2.19-3.75 4.615-3.75 5.389s2.236-1.101 4.969-4.168c4.79-5.374 12.107-9.9 15.77-9.754 1.518.061 1.485.189-.239.93-1.908.82-1.897.863.25.93 1.237.038 2.25.551 2.25 1.138 0 .588 1.307.138 2.904-1 1.598-1.137 3.848-2.068 5-2.068 1.242 0 2.096-.643 2.096-1.577 0-2.765 5.562-7.423 8.864-7.423 4.071 0 4.567 1.246 1.605 4.029-1.358 1.276-2.469 2.916-2.469 3.645S99.275 177 98.389 177c-1.222 0-1.041.466.75 1.929 1.463 1.195 2.723 1.576 3.311 1 1.607-1.572 6.364-1.029 7.743.883 1.608 2.229 5.979 2.159 8.272-.134 1.975-1.975 4.8-2.154 7.493-.472 1.574.983 2.275.893 3.802-.489 3.21-2.905 7.733-3.214 11.814-.806l3.64 2.148 2.529-2.53c1.392-1.391 3.481-2.536 4.643-2.544 2.266-.017 4.839-1.302 4.699-2.347-.28-2.092.185-2.457 2.578-2.023 2.437.442 2.545.33 1.267-1.316-1.288-1.66-1.228-1.656.77.045 1.191 1.014 1.95 2.405 1.687 3.09s.223 1.827 1.08 2.538c1.187.986 1.287 1.619.423 2.661-.624.752-.823 1.367-.441 1.367.921 0 3.554-2.66 3.1-3.131-.195-.203 1.877-.479 4.606-.614 8.363-.414 14.756 4.77 15.035 12.189.172 4.555 1.81 4.678 1.81.137 0-6.938 4.24-21.075 6.592-21.978 2.482-.952 1.517-4.197-2.661-8.944-5.67-6.441-11.162-8.063-20.614-6.085-8.574 1.794-8.696 1.789-7.735-.324.438-.963.842-7.6.899-14.75.093-11.616.353-13.458 2.44-17.304 1.285-2.366 2.56-6.281 2.832-8.699.456-4.042.294-4.447-2.011-5.026-1.827-.458-2.661-1.488-3.078-3.8-.314-1.744-1.502-8.545-2.639-15.113-2.478-14.314-5.999-21.447-14.486-29.346-3.08-2.867-5.888-5.212-6.241-5.212s-1.422-.707-2.377-1.572c-2.37-2.144-15.891-7.565-17.064-6.84-.519.321-1.594.045-2.388-.614s-2.069-.958-2.834-.664-1.784.175-2.263-.263c-.48-.438-1.434-.591-2.122-.339m74.472 3.296c-2.447 1.925-2.666 1.935-5.558.275-2.877-1.651-3.103-1.644-5.087.152-1.383 1.251-2.077 3.104-2.077 5.545 0 4.6 4.85 14.404 7.356 14.868C185.752 66.473 197 53.86 197 49.423c0-2.036-4.099-6.423-6-6.423-.402 0-1.877.902-3.278 2.004m-139.99 2.081c.415 1.584.748 1.764 1.391.75C50.355 45.891 50.189 45 48.594 45c-.933 0-1.223.702-.862 2.085M28.656 59.187c.84 4.408.98 4.481 3.248 1.705 2.105-2.576 1.834-3.293-1.642-4.343-2.077-.628-2.192-.439-1.606 2.638M35 60c-.589 1.1-.695 2-.235 2C35.828 62 38 59.852 38 58.8c0-1.552-1.943-.775-3 1.2m50.98 4.524c-.696.838-1.04 1.749-.766 2.024.906.905 3.786-.734 3.786-2.155 0-1.835-1.441-1.772-3.02.131M12.058 79.365c-24.493 57.139-2.023 123.271 52.192 153.608 3.163 1.77 5.75 3.016 5.75 2.769s-3.037-2.476-6.75-4.954c-26.14-17.449-45.946-48.943-51.341-81.64-2.643-16.014-.595-42.263 4.421-56.663 1.186-3.406 1.184-4.566-.016-7.985-.772-2.2-1.157-4.985-.855-6.189 1.051-4.194-1.489-3.407-3.401 1.054m179.915-.646c-3.843 2.672-5.743 5.417-6.904 9.974-1.355 5.315-1.377 14.367-.043 17.874.957 2.517 1.322 2.657 5.451 2.091 9.971-1.366 20.945-6.841 23.578-11.761 3.229-6.033-.155-12.33-6.497-12.092-2.367.089-3.558-.313-3.558-1.201 0-.734-.933-2.52-2.073-3.969-2.438-3.1-6.302-3.456-9.954-.916m-62.43 34.212c-.317.512-.118 1.213.441 1.559s1.016-.074 1.016-.931c0-1.757-.6-2.015-1.457-.628m23.27-.248c.721.289 1.584.253 1.916-.079s-.258-.568-1.312-.525c-1.165.048-1.402.285-.604.604M.389 127.5c.001 7.15.161 9.944.353 6.208.193-3.735.192-9.585-.003-13-.194-3.414-.352-.358-.35 6.792m151.693-10.618c-.781 1.085-2.243 2.188-3.25 2.452-2.366.619-2.352 3.885.025 6.037 1.743 1.577 1.997 1.568 4.101-.136 1.984-1.606 2.144-2.307 1.392-6.071-.799-4-.935-4.137-2.268-2.282M135 118.393c0 .216.675.652 1.5.969s1.5.139 1.5-.393c0-.533-.675-.969-1.5-.969s-1.5.177-1.5.393m-36.5 2.384c-4.108 2.36-4.656 3.393-2.855 5.383 2.294 2.535 5.844.914 5.894-2.692.026-1.824.72-3.06 2-3.561 1.929-.754 1.928-.767-.039-.81-1.1-.024-3.35.732-5 1.68m24.614 1.473c.111.688-.137 2.023-.551 2.967-1.687 3.853.245 3.813 3.32-.07l3.285-4.147h-3.128c-1.943 0-3.051.473-2.926 1.25m-17.364 5.83c-1.837 1.07-2.382 2.92-.861 2.92.489 0 1.952-.885 3.25-1.967 2.565-2.136.83-2.828-2.389-.953M155.5 134c-.34.55-.141 1 .441 1s1.059-.45 1.059-1-.198-1-.441-1-.719.45-1.059 1m-28.862 1.5c-.316.825-.139 1.5.393 1.5.533 0 .969-.675.969-1.5s-.177-1.5-.393-1.5-.652.675-.969 1.5m33.905-.569c-.317.512-.118 1.213.441 1.559s1.016-.074 1.016-.931c0-1.757-.6-2.015-1.457-.628M102 137.059c0 .582.45.781 1 .441s1-.816 1-1.059-.45-.441-1-.441-1 .477-1 1.059m-7 2.441c0 1.689.458 2.514 1.25 2.25.688-.229 1.25-1.242 1.25-2.25s-.562-2.021-1.25-2.25c-.792-.264-1.25.561-1.25 2.25m58.507-1.511c-.35.566.051.734.941.393 1.732-.665 2.049-1.382.611-1.382-.518 0-1.216.445-1.552.989M91 142.059c0 .582.45.781 1 .441s1-.816 1-1.059-.45-.441-1-.441-1 .477-1 1.059m59.667.608c-.367.366-.667 1.131-.667 1.7 0 .626.466.567 1.183-.15.651-.651.951-1.416.667-1.7s-.817-.217-1.183.15m-39.939 8.689c.259 1.354 1.326 2.686 2.371 2.96 2.566.671 2.393-.505-.471-3.195l-2.371-2.228zM102 154c0 .55.477 1 1.059 1s.781-.45.441-1-.816-1-1.059-1-.441.45-.441 1m-.5 11c-.34.55.335 1 1.5 1s1.84-.45 1.5-1-1.015-1-1.5-1-1.16.45-1.5 1m48.697 1.68c-.975.391-.849.866.5 1.889 2.503 1.898 4.953 1.919 3.384.028-.894-1.077-.865-1.523.127-1.921.711-.285.392-.518-.708-.518s-2.586.235-3.303.522m45.892 4.587c-1.575 4.14-4.227 18.7-3.594 19.725.751 1.216 4.182 1.34 4.9.177.283-.457 1.43-5.028 2.55-10.159 1.514-6.939 1.751-9.672.923-10.669-1.681-2.025-3.814-1.612-4.779.926m-84.321-.099c.582.582 1.647.86 2.369.62.749-.25.295-.703-1.057-1.057-1.663-.435-2.054-.305-1.312.437M85 173c-2.022 2.022-2.635 4-1.241 4 .418 0 1.322-.9 2.009-2s1.894-2 2.681-2 1.711-.45 2.051-1c1.148-1.858-3.484-1.016-5.5 1m87.256 7.038c-3.438 1.368-6.248 6.794-6.252 12.076-.007 8.9 8.074 12.962 13.999 7.036 7.82-7.819 1.716-22.877-7.747-19.112m-38.756.907c-4.172 1.708-6.003 4.982-5.948 10.637.065 6.6 2.978 10.418 7.948 10.418 8.981 0 11.68-16.27 3.409-20.547-1.545-.799-2.945-1.424-3.109-1.39s-1.2.432-2.3.882m17.25.135c-2.666 1.553-4.75 6.355-4.75 10.947 0 3.228.637 4.764 2.923 7.05 4.465 4.465 9.631 3.619 12.567-2.057 4.843-9.366-2.73-20.605-10.74-15.94m-63.397 1.385C84.421 184.519 82 190.083 82 194.766c0 7.57 6.166 11.608 11.753 7.695 1.991-1.395 2.44-1.38 4.782.154 2.385 1.563 2.711 1.568 4.208.07s1.478-1.783-.249-3.691c-1.241-1.372-2.017-4.083-2.304-8.05-.373-5.151-.819-6.256-3.216-7.962-3.301-2.351-6.739-2.535-9.621-.517m33.314.202c-.367.366-.667 3.318-.667 6.559 0 6.351-1.476 7.084-2.566 1.275-.887-4.729-3.185-6.562-5.042-4.022-.766 1.047-1.392 2.68-1.392 3.63s-.338 2.552-.75 3.559q-.75 1.83-1.25-4.168c-.437-5.249-.777-6.039-2.715-6.315-1.683-.239-2.373.317-2.876 2.321-.802 3.197.076 10.27 1.726 13.891s5.677 4.554 7.885 1.827l1.682-2.078 2.027 2.028c1.69 1.689 2.389 1.833 4.197.866 2.495-1.336 3.527-3.671 4.475-10.128.994-6.774-1.783-12.197-4.734-9.245m32.401 3.751c-1.343 1.619-1.738 6.689-.657 8.438 1.234 1.997 3.603 1.237 4.639-1.488 1.7-4.472-1.461-9.988-3.982-6.95m19.289 1.159c-2.121 3.238-.854 7.923 2.143 7.923 2.683 0 4.238-4.584 2.7-7.96-1.467-3.219-2.715-3.209-4.843.037m-96.343-.405c-1.367.516-3.227.744-4.134.507-1.41-.369-4.88 2.357-4.88 3.832 0 .269 2.423.489 5.383.489 5.079 0 5.414-.156 5.912-2.75.291-1.512.456-2.81.367-2.883-.089-.074-1.281.288-2.648.805m13.543 1.051c-.856 1.222-1.557 3.955-1.557 6.073 0 5.529 2.976 4.708 4.718-1.302 1.934-6.675.105-9.435-3.161-4.771m43.879.175c-1.007 4.015-.142 7.102 1.992 7.102 2.306 0 3.664-4.019 2.458-7.278-1.087-2.94-3.694-2.837-4.45.176m82.624 20.161c-2.799 5.908-3.426 11.919-1.06 10.154 6.315-4.708 7.032-6.582 4.655-12.154l-1.255-2.941zm6.26 6.223c-1.122 1.516-2.37 3.799-2.774 5.072-.718 2.262-.677 2.278 1.753.686 1.511-.991 2.679-2.887 2.976-4.835.632-4.147.481-4.219-1.955-.923m-15.989 2.468c-3.044 3.167-4.253 5.372-4.744 8.652-.524 3.498-.395 4.204.627 3.436 9.87-7.422 9.786-7.32 9.786-11.922 0-2.429-.356-4.416-.792-4.416-.435 0-2.63 1.912-4.877 4.25m8.356 4.555c-1.701 1.776-2.675 3.885-2.655 5.75.031 2.854.079 2.883 1.578.945 2.449-3.167 5.514-9.5 4.597-9.5-.458 0-2.042 1.262-3.52 2.805m5.563.555c-1.238.613-2.25 1.395-2.25 1.738s-1.147 2.313-2.549 4.38c-3.931 5.792-1.984 5.488 3.515-.55 6.241-6.853 6.546-8.174 1.284-5.568m-36.88 11.749c-6.072 3.588-22.745 10.182-31.37 12.406-3.575.922-10.775 2.262-16 2.978l-9.5 1.301 6.5.1c8.479.131 22.657-1.634 31.704-3.947 7.593-1.941 21.952-7.763 26.474-10.733l2.678-1.76-2.807-1.611c-2.693-1.546-3.008-1.494-7.679 1.266"/><path fill="#1976D2" fill-opacity=".264" fill-rule="evenodd" d="M118.75 5.732c2.337.211 6.162.211 8.5 0 2.338-.21.425-.383-4.25-.383s-6.588.173-4.25.383M101.058 7.09C94.886 8.301 93.562 9.107 99 8.343c2.475-.347 6.975-.958 10-1.356 5.439-.717 5.45-.725 1-.746-2.475-.012-6.499.37-8.942.849M135 6.851c1.535.377-.779.838-6 1.195l-8.5.581 12 .194c18.767.303 29.245 2.604 43 9.44C204.75 32.799 227.266 58.412 237.682 89c1.779 5.225 3.253 8.904 3.276 8.176.085-2.693-5.09-16.477-9.364-24.944-10.747-21.287-28.445-39.836-48.89-51.241-9.621-5.368-5.597-4.537 5.408 1.115 36.793 18.9 61.5 54.717 65.776 95.356.672 6.387.874 7.043.979 3.195.171-6.234-3.165-22.582-6.508-31.891C235.998 54.342 206.22 25.246 172 14.155c-10.491-3.401-27.03-7.12-33.5-7.534-3.3-.211-4.875-.108-3.5.23M91.813 9.683c.721.289 1.584.253 1.916-.079s-.258-.568-1.312-.525c-1.165.048-1.402.285-.604.604m16.687.794c-6.568 1.688-3.824 1.71 5 .04 4.478-.848 5.739-1.325 3.5-1.325-1.925 0-5.75.578-8.5 1.285M98.5 13c-1.261.542-1.445.859-.5.859.825 0 2.4-.386 3.5-.859 1.261-.542 1.445-.859.5-.859-.825 0-2.4.386-3.5.859m-34.725 8.25c-.883.688-1.817 2.15-2.075 3.25-.35 1.496-.497 1.307-.584-.75-.064-1.512-.453-2.743-.866-2.735-2.411.05-3.293 2.182-3.537 8.55-.157 4.095-.973 8.332-1.994 10.347-.95 1.877-1.613 3.528-1.472 3.669.453.452 3.884-2.369 3.939-3.24.03-.463.395-1.741.813-2.841s.93-2.9 1.139-4c.269-1.424 1.313-2.09 3.62-2.313 3.671-.355 3.57-.195 2.278-3.592-.767-2.017-.613-2.74.75-3.535.943-.55 1.166-1.013.495-1.03-.67-.016-.959-.705-.643-1.53.702-1.827.244-1.889-1.863-.25M19.393 27.5l1.214 3c.443 1.094-.066 1.5-1.878 1.5-1.366 0-3.044-.675-3.729-1.5-1.431-1.724-3-1.975-3-.48 0 .561 1.097 2.757 2.437 4.881 1.522 2.411 2.252 4.751 1.943 6.23-.427 2.043-.26 1.96 1.211-.604.939-1.635 2.803-3.835 4.142-4.889 1.889-1.486 2.136-2.106 1.101-2.762-.734-.465-.985-.852-.558-.861.883-.017-2.017-6.015-2.909-6.015-.319 0-.308.675.026 1.5m23.048 14.945c1.068.855 2.643 1.519 3.5 1.476 1.347-.068 1.355-.155.059-.635-.825-.306-2.4-.97-3.5-1.476-1.968-.906-1.969-.895-.059.635m72.089 1.506c-.356.577-.409 1.436-.117 1.909.293.473-2.199.229-5.537-.543-4.091-.945-6.462-1.076-7.275-.401-.663.55-2.187.743-3.388.429s-2.965-.271-3.92.096c-1.444.554-1.497.815-.317 1.544 1.107.684.787 1.166-1.449 2.185-2.259 1.029-2.956 1.043-3.281.068-.856-2.568-5.099-1.188-9.397 3.057-2.392 2.362-5.614 4.84-7.161 5.507q-2.811 1.211-2.5 3.051c.172 1.012-.309 2.588-1.068 3.503-.759.914-1.488 3.904-1.62 6.644s-.728 5.57-1.325 6.289-1.196 2.951-1.331 4.958c-.188 2.789.336 4.195 2.219 5.952 1.79 1.672 2.976 4.625 4.338 10.801 1.031 4.675 2.263 8.927 2.737 9.45s.862 1.93.862 3.128C75 116.06 79.52 124 82.071 124c1.43 0 1.101-3.391-.539-5.559-1.781-2.354-1.811-8.568-.086-17.941.856-4.651 1.531-6.426 2.013-5.289.512 1.208 2.433 1.904 6.539 2.368 3.198.362 6.999 1.435 8.447 2.385 2.359 1.547 2.467 1.864 1.039 3.049-.876.727-2.023 2.126-2.549 3.108-.839 1.568-.558 1.744 2.305 1.448 1.793-.186 4.049-.663 5.012-1.061 2.063-.852 6.748.136 6.748 1.423 0 .491-1.687 1.185-3.75 1.541s-4.459 1.183-5.325 1.838c-2.067 1.562-5.335 6.613-4.694 7.254.276.276 2.328.21 4.56-.147 3.142-.502 3.943-1.017 3.552-2.283-.434-1.4-.3-1.383.936.116 2.463 2.989 11.721 1.396 11.721-2.018 0-.92.587-1.221 1.614-.827 1.359.522 1.512.079.969-2.815-.354-1.889-.212-3.701.316-4.028 1.271-.785.771-5.049-.815-6.96-.789-.951-2.252-1.332-3.921-1.021-3.828.714-9.08-2.753-8.738-5.767.656-5.779 1.798-7.737 7.926-13.591 1.567-1.498 3.543-4.073 4.389-5.723 2.09-4.075 2.913-4.471 9.26-4.46 19.547.032 29.355 10.008 34.183 34.767.57 2.919 1.302 5.041 1.628 4.715 1.146-1.146-.087-10.668-3.91-30.205-1.792-9.157-9.267-18.532-21.701-27.219-1.891-1.321-4.132-2.087-5.25-1.795-1.168.305-1.95.007-1.95-.745 0-.69-1.822-1.97-4.048-2.845-4.018-1.578-4.043-1.574-3.404.599.573 1.95.347 1.878-2.083-.659-2.03-2.12-2.929-2.52-3.52-1.565-.63 1.021-1.097 1.031-2.28.049-1.007-.836-1.696-.896-2.135-.186m-81.349 3.896c-.726 2.391-1.09 4.577-.809 4.858.28.281 2.833-.085 5.672-.813 2.84-.728 4.562-1.523 3.827-1.768-.734-.245-1.964-1.074-2.732-1.842s-1.986-1.171-2.706-.895c-.79.304-1.432-.367-1.621-1.692-.231-1.625-.655-1.065-1.631 2.152m153.859-1.171-2.105 2.676-1.524-2.176c-3.1-4.425-7.831-1.724-7.603 4.341.132 3.518 4.28 12.801 6.269 14.03 1.526.944 10.463-8.04 12.902-12.97l1.977-3.995-2.152-2.291c-2.829-3.011-5.184-2.894-7.764.385M35.25 50.031c-1.237.498-2.25 1.144-2.25 1.437 0 1.049 2.654.504 4.559-.936 2.17-1.641 1.104-1.873-2.309-.501m-12.445 9.648c-1.053.277-1.495 1.084-1.168 2.134.414 1.327.165 1.261-1.167-.313-1.633-1.929-1.67-1.867-1.036 1.75.413 2.361.269 3.75-.389 3.75-.575 0-1.097-1.237-1.161-2.75-.072-1.715-.289-2.087-.576-.988-.253.969-.875 1.505-1.384 1.191-.514-.318-.924 1.452-.924 3.988 0 5.237 1.311 5.818 5.205 2.309 1.373-1.237 3.79-3.002 5.37-3.921s3.007-2.076 3.172-2.57c.291-.872-3.094-5.376-3.864-5.143-.211.064-1.146.317-2.078.563m114.841.802c-.398 1.037.396 1.743 2.643 2.35 3.95 1.068 4.188.905 2.54-1.734-1.518-2.43-4.358-2.767-5.183-.616m-51.669 3.542c-2.622 2.622-1.216 5.937 2.238 5.276 1.851-.354 2.285-1.088 2.285-3.868 0-3.943-1.516-4.415-4.523-1.408M11.138 77.75c-2.984 5.882-7.97 22.372-8.569 28.337-.515 5.132-.468 5.056.905-1.465 1.733-8.236 6.077-21.676 8.684-26.872 1.036-2.062 1.658-3.75 1.383-3.75s-1.356 1.688-2.403 3.75m178.963 3.303c-3.914 3.914-5.257 9.049-4.893 18.709l.292 7.738 5-.143c10.687-.306 22.841-7.382 24.114-14.041.493-2.574.109-3.684-2.002-5.795-2.189-2.188-3.179-2.505-6.112-1.955-3.228.606-3.5.466-3.5-1.8 0-6.097-7.861-7.751-12.899-2.713M16.07 95.509c-1.138 3.686-2.046 7.442-2.016 8.346.029.905 1.117-1.954 2.418-6.353s2.208-8.155 2.017-8.347c-.192-.191-1.28 2.668-2.419 6.354m122.93.533c-3.025 1.046-5.613 1.914-5.75 1.93-.137.015-.25.672-.25 1.458 0 .787 1.012 1.575 2.25 1.75 2.652.377 3.099 3.629.777 5.644-.853.74-.94 1.023-.196.641.899-.462 1.268-.08 1.135 1.176-.44 4.167-.088 4.476 4.744 4.164 4.081-.264 4.787-.637 5.292-2.795.394-1.68.833-2.086 1.35-1.25.421.682.514 1.648.206 2.146-.308.499.562.387 1.933-.25 3.135-1.454 3.127-2.129-.067-5.323-2.205-2.205-3.213-2.504-7-2.077-2.433.274-4.424.173-4.424-.224 0-2.449 8.777-6.414 11.778-5.32 1.516.552 1.494.368-.183-1.542-2.289-2.607-4.359-2.63-11.595-.128m-31.25 3.62c.688.278 1.813.278 2.5 0 .688-.277.125-.504-1.25-.504s-1.937.227-1.25.504m133.468.838c.01 1.1.362 3.35.782 5 .686 2.695.765 2.746.782.5.01-1.375-.342-3.625-.782-5-.627-1.959-.797-2.067-.782-.5m-228.537 9.01c-.363 2.194-.609 5.34-.548 6.99s.505.3.986-3c.98-6.711.593-10.234-.438-3.99m155.069-.264c-1.853 2.841-2.413 9.754-.79 9.754 1.298 0 3.317-7.001 2.887-10.012l-.347-2.425zm75.502 3.254c.011 2.2.216 2.982.455 1.738s.23-3.044-.02-4-.446.062-.435 2.262m-241.942 5c.005 3.3.192 4.529.415 2.732s.218-4.497-.01-6c-.229-1.503-.411-.032-.405 3.268m243.064 10c.002 6.05.167 8.396.366 5.213.199-3.182.197-8.132-.004-11-.201-2.867-.364-.263-.362 5.787M11.37 130c0 5.775.165 8.137.367 5.25s.202-7.612 0-10.5-.367-.525-.367 5.25m61.232-7.164c-.814 1.316.696 5.521 3.042 8.469 2.867 3.604 3.578 3.395 2.788-.817-.54-2.877-.387-3.408.844-2.936.864.332 1.301 1.351 1.027 2.396-.758 2.902 2.297 7.742 5.243 8.306 2.303.44 2.542.241 1.958-1.627a80 80 0 0 1-1.194-4.339c-.291-1.217-2.935-4.03-5.876-6.25-5.429-4.099-6.905-4.702-7.832-3.202M.195 127.5c.02 1.65.244 2.204.498 1.231s.237-2.323-.037-3-.481.119-.461 1.769m132.46-.821c-.373.373-2.361.71-4.417.75-2.922.055-3.708.453-3.599 1.821.076.963-.464 1.75-1.2 1.75-.737 0-1.798-.787-2.359-1.75-.917-1.574-1.022-1.531-1.05.433-.036 2.624 3.058 3.875 5.866 2.372 1.085-.58 3.101-1.055 4.479-1.055s2.808-.486 3.175-1.081c.376-.608 1.77-.805 3.186-.449 2.049.514 2.401.328 1.89-1.001-.344-.898-.626-1.821-.626-2.051 0-.694-4.616-.469-5.345.261M255.232 130c0 1.925.206 2.713.457 1.75.252-.963.252-2.537 0-3.5-.251-.963-.457-.175-.457 1.75M1.31 137.5c.005 3.3.192 4.529.415 2.732s.218-4.497-.01-6c-.229-1.503-.411-.032-.405 3.268m156.315-2.375c-.834 4.168-.026 4.976.875.875.38-1.729.482-3.351.227-3.606s-.751.974-1.102 2.731m-59.18.572c.853 1.758 1.691 4.109 1.861 5.224.519 3.4 1.694 3.609 1.694.301 0-1.936-.964-4.17-2.553-5.916l-2.553-2.806zm33.282.23c-1.525.315-3.603 1.842-4.616 3.393-1.517 2.322-1.954 2.532-2.47 1.187-1.034-2.696-2.641-.651-2.641 3.361 0 4.521-1.932 7.479-4.566 6.991-1.064-.198-3.938-3.38-6.387-7.073s-4.627-6.539-4.841-6.326c-.691.691 4.426 10.041 8.204 14.99 2.022 2.649 4.392 6.2 5.267 7.892 1.922 3.717 2.258 10.462.572 11.504-.67.414-1.517 2.244-1.881 4.066-.659 3.292-.644 3.307 2.526 2.611 2.062-.453 3.732-.249 4.728.578 1.255 1.042 1.943 1.024 3.709-.095 1.193-.756 3.744-1.635 5.669-1.955 3.336-.553 3.526-.808 4.058-5.421.393-3.417.184-4.984-.712-5.328-2.111-.81-2.538-4.03-.944-7.113.828-1.601 4.015-5.973 7.084-9.716 5.635-6.875 9.246-13.075 8.215-14.106-.309-.308-1.502 1.283-2.652 3.536-2.268 4.447-3.141 4.896-5.049 2.597-.685-.825-2.035-1.5-3-1.5s-2.336-.7-3.045-1.555c-1.975-2.379-4.181-3.147-7.228-2.518M254.31 140.5c.005 3.3.192 4.529.415 2.732s.218-4.497-.01-6c-.229-1.503-.411-.032-.405 3.268M83 140c0 .55.477 1 1.059 1s.781-.45.441-1-.816-1-1.059-1-.441.45-.441 1m160.252 2.5c.011 2.2.216 2.982.455 1.738s.23-3.044-.02-4-.446.062-.435 2.262m-231.134 2.083c.065 2.155.479 5.267.921 6.917.505 1.89.597.596.249-3.5-.62-7.286-1.351-9.422-1.17-3.417m-9.549 4.33c1.882 18.764 16.142 46.778 32.279 63.414 16.677 17.192 35.005 27.523 60.64 34.18 15.618 4.056 21.761 5.013 24.031 3.742 1.231-.688-1.248-1.282-9.002-2.154-31.596-3.556-63.87-26.035-81.972-57.095-5.278-9.055-8.718-17.152-11.987-28.21-1.349-4.559-2.476-7.447-2.505-6.417-.097 3.439 6.982 22.955 11.196 30.864 10.892 20.441 28.887 38.696 49.251 49.961 8.009 4.43 3.294 3.223-6.27-1.605-33.359-16.842-56.882-47.796-64.756-85.215-1.373-6.521-1.42-6.597-.905-1.465M101.086 146c.03.825.441 2.4.914 3.5l.859 2 .055-2c.031-1.1-.381-2.675-.914-3.5-.862-1.333-.963-1.333-.914 0m140.514 5.1c-.366 2.292-.471 4.362-.232 4.601s.748-1.427 1.132-3.701.489-4.345.232-4.601c-.256-.256-.766 1.409-1.132 3.701m11.595-1.6c.02 1.65.244 2.204.498 1.231s.237-2.323-.037-3-.481.119-.461 1.769m-183.013 2.097C64.375 154.49 60 160.514 60 165.616c0 1.764-.854 3.671-2.136 4.768-1.924 1.648-2.078 2.521-1.552 8.795.321 3.831.168 8.058-.339 9.393-1.32 3.472.139 2.984 2.81-.939 1.256-1.845 3.731-4.063 5.5-4.93 9.67-4.739 14.28-6.703 15.733-6.703.893 0 2.602-1.125 3.797-2.5 1.587-1.826 3.187-2.506 5.93-2.522 2.067-.012 4.759-.8 5.983-1.75 2.037-1.582 2.121-2.024.992-5.228-.679-1.925-1.626-4.113-2.104-4.862-.536-.838-.427-1.635.282-2.073.796-.493.528-1.276-.872-2.544-1.113-1.007-2.024-1.517-2.024-1.134 0 .384-1.952-.447-4.338-1.845-5.622-3.295-10.791-3.278-17.48.055m92.485-1.93c-.367.366-.667 1.131-.667 1.7 0 .626.466.567 1.183-.15.651-.651.951-1.416.667-1.7s-.817-.217-1.183.15m-30.917 2.45c-3.58 1.812-5.148 4.883-2.493 4.883 4.576 0 10.595-3.512 10.711-6.25.056-1.323-4.354-.59-8.218 1.367m41.015-.127c-2.882.511-6.184 2.034-8.438 3.892-2.572 2.12-4.064 2.751-4.888 2.068-1.244-1.033-4.439-.289-4.439 1.035 0 .423.675 1.33 1.5 2.015 2.262 1.877 1.812 2.99-1.25 3.09l-2.75.09 3.089.897c1.699.493 5.167 3.153 7.707 5.91 4.418 4.796 4.847 5.014 9.911 5.031 3.975.014 6.64.761 10.703 3 2.975 1.64 5.504 2.982 5.62 2.982.115 0 .739-2.69 1.386-5.978.704-3.578 2.18-7.171 3.677-8.95l2.501-2.973-2.68-4.05c-4.791-7.239-11.723-9.819-21.649-8.059m78.28 6.754c-.701 3.166-2.571 9.321-4.154 13.679s-2.707 8.094-2.498 8.303c.544.544 6.104-15.241 7.584-21.53.687-2.917 1.045-5.507.796-5.756s-1.026 2.138-1.728 5.304M160 155.559c0 .857.45 1.281 1 .941s1-1.041 1-1.559-.45-.941-1-.941-1 .702-1 1.559m77.389 11.078c-1.71 5.216-2.753 9.119-2.317 8.674 1.089-1.113 6.109-16.285 5.732-17.322-.167-.459-1.704 3.432-3.415 8.648m-41.286 7.113c-2.537 9.769-3.383 16.37-2.245 17.508.819.819 1.448.836 2.224.06 1.383-1.383 5.166-18.228 4.49-19.99-1.02-2.659-3.498-1.316-4.469 2.422m-43.795 7.26c-8.289 3.339-7.083 18.945 1.531 19.803 4.92.489 8.161-3.628 8.161-10.37 0-4.652-.358-5.567-3.077-7.854-3.372-2.838-3.446-2.856-6.615-1.579m18.423.987c-5.23 4.114-5.677 15.356-.717 18.011 6.069 3.247 11.974-.828 12.739-8.792.391-4.071.088-5.274-1.893-7.495-3.326-3.729-6.823-4.324-10.129-1.724m-81.475.1c-6.067 2.255-8.508 14.742-3.801 19.448 3.12 3.121 4.995 3.096 8.201-.11 2.563-2.563 2.566-2.564 4.011-.5 1.488 2.124 3.811 2.719 4.742 1.213.289-.469-.359-2.589-1.441-4.712S99 191.699 99 189.404c0-3.235-.506-4.498-2.25-5.614-3.5-2.24-5.07-2.594-7.494-1.693m42.171 1.212c-2.077 1.787-2.796 3.472-3.178 7.454-.455 4.736-.247 5.393 2.621 8.261 3.577 3.577 6.186 3.402 9.88-.661 3.287-3.616 3.179-11.525-.205-14.908-3.067-3.068-5.673-3.109-9.118-.146m-26.739.337c-1.037 1.036-.815 9.356.361 13.592 1.467 5.28 4.289 6.579 7.281 3.351 2.276-2.456 2.333-2.464 3.98-.54 3.524 4.116 7.187.902 8.31-7.293.769-5.608-.141-9.756-2.139-9.756-1.086 0-1.508 1.266-1.581 4.75-.055 2.613-.436 5.875-.847 7.25l-.748 2.5-1.088-2.5c-.598-1.375-1.492-3.85-1.986-5.5-1.276-4.263-3.487-3.766-4.45 1-1.754 8.678-2.795 8.493-3.682-.654-.555-5.732-1.735-7.876-3.411-6.2m67.938 2.215c-.894.988-1.626 3.393-1.626 5.345 0 6.243 4.939 7.716 7.07 2.109 2.117-5.568-2.023-11.235-5.444-7.454m-39.108.763c-3.656 3.657.05 12.639 3.898 9.446 2.828-2.347 1.611-11.07-1.545-11.07-.4 0-1.459.731-2.353 1.624m18.457.422c-2.747 5.134 1.388 12.816 4.584 8.513.792-1.068 1.441-3.34 1.441-5.05 0-5.178-3.906-7.422-6.025-3.463m75.229 2.021c-1.245 2.163-2.062 3.933-1.815 3.933.689 0 4.891-7.054 4.459-7.486-.209-.209-1.399 1.39-2.644 3.553M88.93 187.584c-.723.872-1.341 3.671-1.372 6.222-.045 3.583.326 4.714 1.634 4.977 2.206.445 4.808-4.553 4.808-9.233 0-2.806-.393-3.55-1.878-3.55-1.032 0-2.469.713-3.192 1.584m147.942 5.166c-1.243 1.586-1.208 1.621.378.378 1.666-1.307 2.195-2.128 1.372-2.128-.207 0-.995.787-1.75 1.75m-15.345 4.931c-1.53 2.586-2.213 2.84-8.266 3.073-4.68.181-7.3-.205-9.011-1.326-2.49-1.631-5.25-1.316-5.25.6 0 .599.403.841.895.537.493-.305 1.162.142 1.489.993.405 1.055.2 1.303-.645.782-.682-.421-.114.656 1.261 2.392 1.375 1.737 2.915 3.182 3.421 3.213.507.03 1.81.842 2.896 1.805 1.92 1.702 1.941 1.686.747-.586-.674-1.284-.981-2.58-.682-2.879s1.082.64 1.741 2.086 1.576 2.629 2.038 2.629c1.188 0 1.043-1.756-.21-2.53-1.605-.992.895-3.47 3.502-3.47 1.476 0 3.294-1.512 5.483-4.561 1.802-2.508 3.047-4.789 2.767-5.069-.279-.28-1.259.76-2.176 2.311m-30.024.31c-.802 2.526.104 4.009 2.449 4.009 2.29 0 3.463-2.795 1.943-4.627-1.639-1.975-3.659-1.69-4.392.618m25.164 3.676c-.367.366-.667 1.131-.667 1.7 0 .626.466.567 1.183-.15.651-.651.951-1.416.667-1.7s-.817-.217-1.183.15m14.549 2.178c-2.433 1.544-.078 3.989 5.022 5.212 4.586 1.1 5.216 1.043 6.407-.586 1.186-1.622.903-1.994-2.771-3.639-4.453-1.993-6.673-2.246-8.658-.987m-6.596 5.764c-1.584 1.905-2.705 3.639-2.49 3.854s1.873-1.377 3.686-3.536c1.813-2.16 2.934-3.895 2.49-3.855s-2.102 1.631-3.686 3.537m-19.674 7.054-3.446 3.662 4.25-3.33c2.338-1.831 4.25-3.479 4.25-3.662 0-1.195-2.096.186-5.054 3.33m10.986 1.977c-2.115 2.225-2.66 3.215-1.421 2.578 2.452-1.259 5.991-5.049 5.331-5.709-.263-.264-2.023 1.146-3.91 3.131m10.318.022c-.687.278-1.25 1.592-1.25 2.921 0 1.736.554 2.417 1.966 2.417 1.081 0 3.565.763 5.52 1.695 3.256 1.552 3.687 1.56 5.152.096 2.026-2.026 1.21-3.318-3.666-5.805-3.914-1.997-5.415-2.254-7.722-1.324m-20.75 8.985-4 3.571 4.75-3.279c2.613-1.803 4.75-3.427 4.75-3.609 0-1.025-1.964.16-5.5 3.317m12.5 5.364 2.5.811-2.239.703c-3.324 1.043-1.706 2.475 2.798 2.475 2.168 0 3.941.375 3.941.833 0 .459.722.834 1.605.834 1.197 0 1.006-.461-.75-1.811-1.295-.997-2.917-1.822-3.605-1.834-.687-.012-1.25-.458-1.25-.991 0-1.103 2.446-.355 5.75 1.759 1.238.792 2.25 1.022 2.25.51 0-1.522-6.82-4.308-10.284-4.2-3.068.095-3.101.137-.716.911m-96.238 18.696c1.244.239 3.044.23 4-.02s-.062-.446-2.262-.435-2.982.216-1.738.455"/><path fill="#1976D2" fill-opacity=".962" fill-rule="evenodd" d="M190.324 44.638c-.647.264-2.4 2.14-3.896 4.171l-2.72 3.691 3.753-3.743c2.064-2.058 4.225-3.451 4.801-3.095.61.377.75.166.333-.507-.392-.635-.799-1.119-.904-1.076zm-86.867 1.292c.707 1.145-.364 1.734-4.457 2.449-1.375.24-3.767.928-5.315 1.529C90.164 51.274 86 51.324 86 50c0-2.053-2.105-.868-6.216 3.5-2.329 2.475-4.753 4.5-5.387 4.5s-1.77.761-2.525 1.692c-.932 1.15-.971 1.451-.122.941 1.8-1.082 1.542.88-.32 2.425-.863.716-1.359 2.105-1.103 3.085.257.981-.138 2.285-.876 2.898-.992.823-1.087 1.786-.364 3.687.777 2.045.591 3.005-.905 4.673-3.019 3.364-3.336 5.445-1.159 7.622 1.087 1.087 1.639 1.984 1.227 1.992-.413.009-.198.366.477.795.674.428 1.874 3.459 2.666 6.734s1.478 4.921 1.524 3.656c.101-2.81 3.257-9.137 3.783-7.585.207.614-.534 3.426-1.647 6.25-2.447 6.209-1.284 6.799 1.743.885 2.433-4.752 2.969-3.829.799 1.378-.772 1.855-1.675 5.622-2.005 8.372l-.601 5 1.862-6c1.023-3.3 2.83-8.184 4.014-10.854 1.728-3.896 2.496-4.706 3.894-4.108 3.713 1.589 7.355 1.67 9.03.202.941-.824 3.179-2.242 4.973-3.151 1.793-.909 4.268-3.211 5.5-5.116 1.231-1.906 3.104-3.746 4.162-4.091s4.076-2.872 6.707-5.616c4.577-4.774 5.062-5.012 11.21-5.505 7.637-.613 15.635 1.087 21.003 4.465 2.115 1.33 4.083 2.18 4.374 1.889s-1.082-1.298-3.051-2.237c-3.243-1.546-4.083-3.378-1.549-3.378.55 0 .763.384.472.854-.533.863 3.553 3.146 5.631 3.146 1.577 0-3.168-4.902-6.345-6.555-4.32-2.249-18.789-5.647-24.522-5.759-3.457-.068-5.354-.533-5.354-1.312 0-.664-.486-1.369-1.08-1.567-.747-.249-.687-1.225.195-3.16 1.231-2.701 1.49-2.785 7.33-2.359 3.33.243 7.532.708 9.337 1.034 1.805.325 3.048.212 2.761-.252s-2.125-1.144-4.085-1.512-3.827-1.356-4.15-2.197c-.454-1.184-.763-1.242-1.371-.259-.632 1.022-1.092 1.014-2.361-.039C122.353 48.048 122 48.034 122 49s-.353.952-1.576-.063c-.932-.774-1.852-.926-2.25-.373-1.038 1.441-3.53 1.088-6.622-.938-3.274-2.145-9.131-3.372-8.095-1.696m74.21.737c-1.398 1.398-.591 2.515.914 1.266 1.307-1.085 1.958-1.078 3.75.038 1.977 1.231 2.047 1.203.797-.31-1.395-1.687-4.249-2.207-5.461-.994m17.064 1.413c.354 1.352.807 1.806 1.057 1.057.24-.722-.038-1.787-.62-2.369-.742-.742-.872-.351-.437 1.312M177.6 56c.716 2.675 3.428 7.095 3.358 5.473-.023-.535-.938-2.548-2.034-4.473-1.488-2.613-1.823-2.866-1.324-1m11.915 1.719-1.756 2.781 2.315-2.222c1.273-1.222 2.063-2.474 1.756-2.781-.308-.308-1.349.692-2.315 2.222m-40.332 4.75c1.464 1.358 2.975 3.495 3.358 4.75s1.352 3.029 2.154 3.944 2.538 4.29 3.858 7.5c2.052 4.992 2.403 5.403 2.422 2.837.047-6.107-9.499-21.5-13.333-21.5-.617 0 .077 1.111 1.541 2.469M87.28 62.02c-2.377.957-3.891 4.947-2.877 7.587.488 1.272 1.406 1.464 4.358.913 4.702-.878 5.03-1.221 2.754-2.886-1.244-.909-1.608-1.949-1.124-3.211.606-1.579.86-1.64 1.647-.395.512.81.938 1 .947.422.016-1.129-2.03-3.491-2.935-3.387-.302.035-1.549.466-2.77.957M101.5 71c-.34.55-.141 1 .441 1S103 71.55 103 71s-.198-1-.441-1-.719.45-1.059 1m56.096 13.25c1.946 3.713 3.781 6.75 4.079 6.75.922 0-.642-4.935-2.144-6.765-.783-.954-2.335-2.86-3.449-4.235s-.432.537 1.514 4.25m40.653-4.561c2.961.774 3.439 5.162 1.177 10.811-.68 1.698-.572 1.815.713.771.833-.675 3.123-1.9 5.088-2.722 3.367-1.406 3.74-1.364 6.424.723l2.849 2.216-1.637-2.494c-1.682-2.562-5.397-3.195-9.113-1.553-1.476.652-1.75.239-1.75-2.634 0-3.702-1.508-5.874-3.95-5.691-1.191.089-1.145.222.199.573m-7.525 1.561C187.653 83.564 186 89.569 186 98.409c0 4.66.35 8.689.778 8.954s.603-2.631.388-6.435c-.497-8.799.277-12.828 3.33-17.327 2.674-3.941 2.701-4.215.228-2.351M210 96.858c-1.925 2.047-4.625 4.5-6 5.451-2.019 1.396-1.73 1.361 1.5-.183 4.196-2.007 6.776-4.441 7.817-7.376.805-2.27.789-2.26-3.317 2.108m-70.425 10.059c-3.254 3.596.807 7.409 5.836 5.479 1.115-.428 1.391-1.336.946-3.108-.59-2.352-.483-2.433 1.758-1.339l2.385 1.164-2.361-2.057c-2.957-2.575-6.31-2.63-8.564-.139m50.238-.234c.721.289 1.584.253 1.916-.079s-.258-.568-1.312-.525c-1.165.048-1.402.285-.604.604M143.5 109c.34.55.816 1 1.059 1s.441-.45.441-1-.477-1-1.059-1-.781.45-.441 1m-36.673 1.675c-1.919.507-5.288 5.197-4.384 6.101.332.332 1.363-.482 2.292-1.808l1.688-2.411.606 2.472c.509 2.075 1.153 2.443 4.013 2.299 1.873-.094 3.569-.66 3.767-1.256.199-.596.773-.83 1.276-.519 1.699 1.05.93-2.229-.914-3.898-1.748-1.582-4.739-1.934-8.344-.98M167.158 115c0 1.375.227 1.938.504 1.25.278-.687.278-1.812 0-2.5-.277-.687-.504-.125-.504 1.25m-33.129 11.961c-.809.512-1.166 1.235-.793 1.608.915.915 3.764-.249 3.764-1.538 0-1.27-1.035-1.294-2.971-.07M125 129c0 .55.9 1 2 1s2-.45 2-1-.9-1-2-1-2 .45-2 1m-50 .409c0 .19.675.906 1.5 1.591.865.718 1.5.815 1.5.229 0-.558-.675-1.274-1.5-1.591s-1.5-.419-1.5-.229m9.638 6.091c.317.825.964 1.5 1.438 1.5.473 0 .602-.675.286-1.5-.317-.825-.964-1.5-1.438-1.5-.473 0-.602.675-.286 1.5m47.775 3.35c-2.143.668-8.413 5.576-8.413 6.585 0 1.149 2.795.517 3.967-.895.667-.804 3.892-1.764 7.167-2.135l5.954-.673-3.068-1.866c-1.688-1.026-3.17-1.821-3.294-1.766s-1.165.392-2.313.75m11.691 8.685c-1.707 1.944-3.104 3.834-3.104 4.2s.341.237.758-.285 2.076-2.413 3.687-4.2 2.667-3.25 2.346-3.25-1.98 1.591-3.687 3.535m-67.514 2.197c-7.227 1.073-17.737 12.115-15.954 16.761.372.969-.195 2.379-1.411 3.512-2.534 2.361-3.898 9.479-2.207 11.517.727.876.934 2.548.521 4.215l-.685 2.763 3.406-3.285c1.874-1.806 4.968-3.715 6.877-4.242s4.44-1.862 5.625-2.966S76.218 176 77.81 176c1.874 0 4.041-1.097 6.151-3.113 2.694-2.575 3.829-3.021 6.563-2.577 6.174 1.002 7.902-4.938 3.334-11.464-1.022-1.46-1.858-3.108-1.858-3.661 0-1.116-9.78-6.272-11.446-6.035-.58.082-2.364.344-3.964.582m93.91 2.991c-2.936.722-10.509 7.171-11.51 9.803-.726 1.909-.082 3.122 4.029 7.594 4.658 5.066 5.147 5.33 10.187 5.483 7.025.213 10.906 1.267 13.104 3.556 2.418 2.52 3.33 1.729 4.126-3.583.367-2.447 1.772-6.077 3.122-8.067 2.685-3.955 2.376-5.607-1.933-10.346-4.002-4.402-13.313-6.359-21.125-4.44m-50.632 6.987c2.446 4.831 2.704 10.665.632 14.29-1.959 3.426-1.87 3.75 1.028 3.75 2.056 0 2.411-.366 1.905-1.961-.548-1.728-.374-1.828 1.472-.84 1.152.617 2.095 2.036 2.095 3.154v2.033l2.904-2.068c1.598-1.137 3.848-2.068 5-2.068 1.722 0 2.096-.614 2.096-3.441 0-1.893-.45-3.719-1-4.059-1.511-.934-1.199-6.196.582-9.8l1.581-3.2-2.331 2.646c-2.729 3.096-9.844 4.635-12.041 2.604-.744-.687-2.411-2.15-3.704-3.25l-2.352-2zM179 158c-.901.582-1.025.975-.309.985.655.008 1.469-.435 1.809-.985.767-1.242.421-1.242-1.5 0m-30.367 29.75c.167.688-.132 1.25-.664 1.25-.533 0-.937 1.012-.899 2.25.067 2.135.112 2.148.876.25.749-1.86.834-1.825 1.223.5.347 2.078.502 1.879.915-1.18.274-2.024.181-3.483-.208-3.244-.388.24-.895.096-1.127-.32s-.284-.193-.116.494m-34.299 1.677c.63 1.335 1.303 2.269 1.497 2.076.62-.621-.935-4.503-1.804-4.503-.461 0-.323 1.092.307 2.427M194 190c0 .55.477 1 1.059 1s.781-.45.441-1-.816-1-1.059-1-.441.45-.441 1m-96.229 6c-.306 1.925-.128 3.95.396 4.5.608.639.682.278.205-1-.687-1.842-.598-1.881 1.133-.5 1.297 1.035 1.631 1.088 1.08.172-.44-.731-1.128-2.531-1.529-4-.717-2.63-.737-2.617-1.285.828m33.876.523c.477 1.242.328 1.58-.477 1.082-1.764-1.09-1.404-.039.522 1.523.931.754 1.378.848.994.207-.384-.64-.196-1.332.417-1.536.701-.234.508-.877-.516-1.727-1.424-1.181-1.544-1.124-.94.451m47.917.184c-.542 1.425-.428 1.54.56.56.684-.679.991-1.486.683-1.793-.308-.308-.867.247-1.243 1.233m-10.955.716c.3.782 1.273 1.702 2.162 2.043 1.328.509 1.287.255-.232-1.423-2.178-2.407-2.677-2.567-1.93-.62m25.82 1.577c0 1.295.338 1.633.985.986.648-.648.648-1.324 0-1.972-.647-.647-.985-.309-.985.986M106 198.378c0 .207.787.995 1.75 1.75 1.586 1.243 1.621 1.208.378-.378-1.307-1.666-2.128-2.195-2.128-1.372M92 201c-.901.582-1.025.975-.309.985.655.008 1.469-.435 1.809-.985.767-1.242.421-1.242-1.5 0"/></svg>